<?xml version="1.0" encoding="UTF-8"?>
<svg width="103px" height="18px" viewBox="0 0 103 18" version="1.1" xmlns="http://www.w3.org/2000/svg" xmlns:xlink="http://www.w3.org/1999/xlink">
    <!-- Generator: Sketch 63.1 (92452) - https://sketch.com -->
    <title>Group 7</title>
    <desc>Created with Sketch.</desc>
    <g id="Page-1" stroke="none" stroke-width="1" fill="none" fill-rule="evenodd" opacity="0.699999988">
        <g id="Chome-Copy-15" transform="translate(-1275.000000, -718.000000)" fill="#564E4E">
            <g id="Group-7" transform="translate(1275.000000, 718.000000)">
                <g id="icon/itunes" transform="translate(44.000000, 1.000000)" fill-rule="nonzero">
                    <g id="ITunes_logo">
                        <path d="M12.0478649,15.0897904 C12.8610684,14.8529783 13.4352446,14.2785958 13.6702011,13.4672804 L13.7395276,13.2288393 L13.7486415,6.8324984 C13.7553858,2.04237728 13.7488845,0.406352393 13.7220896,0.317057629 C13.6938973,0.222393111 13.6491784,0.142993172 13.5906671,0.0802454993 C13.504571,0.027573655 13.4010978,-0.000180123195 13.2838322,0 C13.2030222,0 12.9222531,0.0386751663 12.6603802,0.0859772579 C11.5017596,0.295457949 4.67246606,1.6461016 4.55580805,1.68893895 C4.37535269,1.75518601 4.1965986,1.9125982 4.1117785,2.07966388 L4.03990016,2.22120815 C4.03990016,2.22120815 4.00593566,12.2470192 3.95362184,12.3598443 C3.87408781,12.5316161 3.69746029,12.6943377 3.53462515,12.7461649 C3.45746074,12.7708416 3.15250941,12.838778 2.85648971,12.8971816 C1.48624418,13.167962 0.977384373,13.3630228 0.546904167,13.7827081 C0.302408422,14.0209683 0.12134547,14.3462908 0.0430873888,14.687602 C-0.0317681672,15.0138899 -0.00673530274,15.502115 0.0998974089,15.7990201 C0.211633909,16.1095004 0.391481673,16.3746697 0.626620473,16.5833057 C0.840371971,16.746872 1.09270568,16.8686266 1.37639122,16.9409071 C2.0036103,17.1003707 3.17790683,16.9229878 3.77820951,16.5781773 C4.02926726,16.433918 4.35220337,16.1315225 4.52014229,15.8827641 C4.58673457,15.7842382 4.686623,15.5861004 4.74258238,15.4420824 C4.93810607,14.9378083 4.94424277,5.95626336 4.96921487,5.84313654 C5.01162492,5.6511528 5.14377657,5.51063421 5.32587243,5.46290978 C5.48998352,5.42013276 12.0659104,4.1290994 12.2510443,4.10333665 C12.4138794,4.0808923 12.5676006,4.1329608 12.6515701,4.23564978 C12.7013928,4.26219687 12.7434383,4.29797511 12.7729066,4.34201915 C12.8263141,4.42099675 12.8295343,4.57714192 12.8374938,7.42075783 C12.8466077,10.6937126 12.8506786,10.6169674 12.6714992,10.823552 C12.5411095,10.9737241 12.3785174,11.0319467 11.7101035,11.1673369 C10.6931738,11.3734992 10.3452048,11.4714218 9.95567642,11.6600871 C9.4694191,11.8960546 9.19934366,12.1544664 8.99063519,12.5836846 C8.84305065,12.8873471 8.7879419,13.1149281 8.78836721,13.4170823 C8.78921784,13.9576173 8.97702509,14.3797764 9.40051796,14.7931267 C9.43958624,14.8311976 9.47786465,14.8666139 9.51650762,14.8999184 C9.7298338,15.063726 9.94741314,15.1624933 10.2209519,15.2250599 C10.6335081,15.3193624 11.4732027,15.2572784 12.0478649,15.0897904 Z" id="Path"></path>
                    </g>
                </g>
                <path d="M90.0166667,17 C97.1733333,17 101.036667,11.2481639 101.036667,6.23850019 C101.036667,6.05295709 101.036667,5.92926169 101.036667,5.74371859 C101.796667,5.18708929 102.43,4.56861229 103,3.76459219 C102.303333,4.07383069 101.543333,4.25937379 100.783333,4.38306919 C101.606667,3.88828759 102.176667,3.14611519 102.493333,2.28024739 C101.733333,2.71318129 100.91,3.02241979 100.023333,3.20796289 C98.5666667,1.66177039 96.0966667,1.59992269 94.5133333,3.02241979 C93.5,3.95013529 93.0566667,5.31078469 93.3733333,6.67143409 C90.27,6.48589099 87.3566667,5.00154619 85.3933333,2.65133359 C84.38,4.38306919 84.8866667,6.60958639 86.5966667,7.72284499 C85.9633333,7.72284499 85.3933333,7.53730189 84.8233333,7.22806339 C84.8233333,7.22806339 84.8233333,7.28991109 84.8233333,7.28991109 C84.8233333,9.0834944 86.1533333,10.6296869 87.9266667,11.0007731 C87.3566667,11.1244685 86.7866667,11.1863162 86.1533333,11.0626208 C86.66,12.6088133 88.1166667,13.6602242 89.7633333,13.7220719 C88.37,14.7734828 86.66,15.3301121 84.95,15.3301121 C84.6333333,15.3301121 84.3166667,15.3301121 84,15.2682644 C85.8366667,16.381523 87.9266667,17 90.0166667,17" id="Path"></path>
                <g id="icon/spotify" fill-rule="nonzero">
                    <g id="Spotify_logo_without_text">
                        <path d="M8.99957143,0.0296785714 C4.04432143,0.0296785714 0.0271071429,4.04678571 0.0271071429,9.00203571 C0.0271071429,13.9575 4.04432143,17.9742857 8.99957143,17.9742857 C13.9553571,17.9742857 17.9721429,13.9575 17.9721429,9.00203571 C17.9721429,4.04710714 13.9553571,0.0301071429 8.99946429,0.0301071429 L8.99957143,0.0296785714 Z M13.1142857,12.9703929 C12.9535714,13.2339643 12.6085714,13.3175357 12.345,13.15575 C10.2383571,11.8689643 7.58635714,11.5775357 4.46314286,12.2911071 C4.16217857,12.3596786 3.86217857,12.1711071 3.79360714,11.8700357 C3.72471429,11.5689643 3.91253571,11.2689643 4.21425,11.2003929 C7.63210714,10.4192143 10.5638571,10.75575 12.9289286,12.2011071 C13.1925,12.3628929 13.2760714,12.7068214 13.1142857,12.9703929 L13.1142857,12.9703929 Z M14.2125,10.527 C14.01,10.8564643 13.5792857,10.9603929 13.2503571,10.7578929 C10.8385714,9.27514286 7.16217857,8.84582143 4.3095,9.71175 C3.93953571,9.8235 3.54878571,9.615 3.4365,9.24567857 C3.32507143,8.87571429 3.53367857,8.48571429 3.903,8.37321429 C7.16153571,7.3845 11.2125,7.86342857 13.9821429,9.56539286 C14.3110714,9.76789286 14.415,10.1986071 14.2125,10.5271071 L14.2125,10.527 Z M14.3067857,7.983 C11.415,6.26539286 6.64392857,6.10746429 3.88296429,6.94542857 C3.43960714,7.07989286 2.97075,6.82960714 2.83639286,6.38625 C2.70203571,5.94267857 2.95210714,5.47414286 3.39578571,5.33935714 C6.56517857,4.37721429 11.8339286,4.56310714 15.1632857,6.53957143 C15.5629286,6.77625 15.6936429,7.29128571 15.4568571,7.68953571 C15.2211429,8.08832143 14.7047143,8.21978571 14.3072143,7.983 L14.3067857,7.983 Z" id="Shape"></path>
                    </g>
                </g>
            </g>
        </g>
    </g>
</svg>